<svg xmlns="http://www.w3.org/2000/svg" viewBox="0 0 344.05 142.74">
    <defs>
      <style>.cls-1{fill:#fcb109;}</style>
    </defs>
    <g>
        <g>
            <path class="cls-1"
                  d="M157.4,111.41H106.17c.07-8.87,6.1-16.14,11.93-21.11.71-.44,1.37-.83,2-1.19a23,23,0,0,0,2.2-1.39c5.82-4.47,8.88-5.15,12.43-5.93l.17,0,.63-.72c11.15-2.44,45.24,8.28,52.91,12.21-26.86-17.53-39-17.17-47.22-21l.07-.17,0-.16c-.31-1.41-.7-2.8-1.15-4.41-.6-2.11-1.35-4.75-2.17-8.42a15.7,15.7,0,0,0-1.07-3c-3.52-13.08-13.57-22.8-26.78-29.62l-.4-.3a70.34,70.34,0,0,0-8.32-5.39,124.76,124.76,0,0,0-17.8-10.37H157.4V74.86h1V9.42H81.25c-21.33-9.57-45.78-12.9-69.84-5l.75,14.91c21.85-8.26,63.12-8,92.5,4.72,1.25.82,2.62,1.78,4.38,3a112.32,112.32,0,0,1,10,8.79A108.91,108.91,0,0,1,136.9,59.45c.82,3.64,1.56,6.26,2.16,8.37.43,1.53.8,2.85,1.1,4.17l-1.42,3.22c-.44.69-.9,1.37-1.34,2l-3.1,3.58a25.05,25.05,0,0,0-9.38,3.77c-15.21,6.21-22,11.86-28.72,23.68l10.8,9a20.21,20.21,0,0,1-.8-4.84h52.25V85.57h-1Z"/>
            <path class="cls-1"
                  d="M264.46,48.34a26.88,26.88,0,0,1-6-.48V24.46a32,32,0,0,1,7.41-.59c9.06,0,14,4.35,14,11.64,0,8-5.88,12.83-15.41,12.83M207.37,77.16h-.12c-12,0-19.19-11.64-19.19-26.58S195,23.75,207.37,23.75,226.43,36,226.43,50.22c0,15.53-7,26.94-19.06,26.94m57.56-66.92H240.69V28.71c-5.86-11.44-17-19.2-32.85-19.2-23.3,0-38.6,17.77-38.6,41.53,0,22.6,13.88,40.36,37.3,40.36h.12c15.58,0,27.72-7.09,34-19.65V90.08h17.77V61.63a30.93,30.93,0,0,0,6.12.47c10.59,0,19.76-2.71,25.88-8.35,4.7-4.35,7.17-10.94,7.17-18.82a24.83,24.83,0,0,0-2-9.84h8.94v65h17.89v-65h21.57V10.24Z"/>
            <path class="cls-1" d="M73.18,38.17C31.85,13.39,0,33.87,0,33.87L5.52,50.66S38.46,35.72,73.18,38.17"/>
            <path class="cls-1" d="M46.35,75.15,56,82.27a31.14,31.14,0,0,1,21.52-18c-17-5.51-31.12,10.85-31.12,10.85"/>
            <path class="cls-1" d="M75.87,54.88c-30.39-19.35-54.75,3.35-54.75,3.35l7.17,10.92S46.88,48,75.87,54.88"/>
            <path class="cls-1"
                  d="M127.77,66c-.91-.74-6-4.66-6.6-5.38-4.1-2.39-9.94,2-3.69,4.76C123.56,68.06,129,67,127.77,66"/>
            <path class="cls-1"
                  d="M192.47,105.61c0-1.37-.72-3.09-2.55-3.09s-2.59,1.6-2.59,3.14c0,1.78,1,3.12,2.54,3.12h0c1.47,0,2.57-1.33,2.57-3.17m26.83-.77h4.49a2.13,2.13,0,0,0-2.13-2.39,2.46,2.46,0,0,0-2.36,2.39m21.47,0h4.49a2.13,2.13,0,0,0-2.12-2.39,2.47,2.47,0,0,0-2.37,2.39m32.22,2.6a1.91,1.91,0,0,0,.06-.48v-1.4c-1.68,0-3.59.25-3.59,1.83a1.32,1.32,0,0,0,1.44,1.4,2.15,2.15,0,0,0,2.09-1.35m12-2.6h4.49a2.13,2.13,0,0,0-2.13-2.39,2.47,2.47,0,0,0-2.36,2.39m15.09,2.09a2.13,2.13,0,0,0,.08-.63v-1.41a2.29,2.29,0,0,0-.08-.64,2.23,2.23,0,0,0-2.22-1.68c-1.6,0-2.54,1.33-2.54,3.11s.86,3,2.51,3a2.28,2.28,0,0,0,2.25-1.76m11.77-1.32c0-1.37-.72-3.09-2.54-3.09s-2.6,1.6-2.6,3.14c0,1.78,1.05,3.12,2.54,3.12h0c1.47,0,2.58-1.33,2.58-3.17m22.75-.77h4.49a2.13,2.13,0,0,0-2.12-2.39,2.48,2.48,0,0,0-2.37,2.39m6,.37a4.34,4.34,0,0,1-.05.71l-5.95,0a2.65,2.65,0,0,0,2.9,2.82,6,6,0,0,0,2.34-.4l.3,1a7.14,7.14,0,0,1-2.85.53,3.87,3.87,0,0,1-4.18-4.09c0-2.46,1.52-4.39,4-4.39,2.78,0,3.49,2.33,3.49,3.82m-10.72-6.07a.94.94,0,0,1-1,1h0a.93.93,0,0,1-1-1,1,1,0,0,1,1-.94.93.93,0,0,1,1,.94m-5.75,10.55h-1.55V105c0-1.31-.5-2.42-2-2.42a2.22,2.22,0,0,0-2.07,1.51,1.89,1.89,0,0,0-.1.69v4.88h-1.55v-5.91c0-.85,0-1.52-.07-2.18h1.37l.09,1.31h0a3.18,3.18,0,0,1,2.81-1.5c1.18,0,3,.67,3,3.45Zm-10.68-4.13a4.05,4.05,0,0,1-4.2,4.32h0a4,4,0,0,1-4.07-4.17,4.05,4.05,0,0,1,4.21-4.3,3.91,3.91,0,0,1,4.08,4.15m-11.66,4.13h-1.38l-.07-1.4h0a3.11,3.11,0,0,1-2.87,1.59c-2.05,0-3.65-1.65-3.65-4.12,0-2.71,1.75-4.35,3.81-4.35a2.87,2.87,0,0,1,2.56,1.22h0V97.81h1.55v9.79c0,.73,0,1.54.06,2.09M291,105.21a4.34,4.34,0,0,1-.05.71l-5.95,0a2.65,2.65,0,0,0,2.89,2.82,6,6,0,0,0,2.35-.4l.28,1a7,7,0,0,1-2.84.53,3.86,3.86,0,0,1-4.17-4.09c0-2.46,1.53-4.39,4-4.39,2.77,0,3.49,2.33,3.49,3.82m-1.12-7-2.15,2.41h-1.09l1.56-2.41Zm-9.81,11.49h-1.54V97.81h1.54Zm-5.39,0H273.3l-.14-1h-.05a3.19,3.19,0,0,1-2.6,1.2,2.36,2.36,0,0,1-2.6-2.33c0-2,1.82-3,5.11-3v-.17a1.69,1.69,0,0,0-1.93-1.87,4.29,4.29,0,0,0-2.23.6l-.35-1a5.71,5.71,0,0,1,2.82-.7c2.6,0,3.22,1.69,3.22,3.31v3a14,14,0,0,0,.13,1.94m-9.32-11L265,99.92a5.58,5.58,0,0,0-2.38-.47,4.29,4.29,0,0,0-4.62,4.66,4.19,4.19,0,0,0,4.54,4.54,6.43,6.43,0,0,0,2.5-.48l.31,1.17a7.83,7.83,0,0,1-3.13.54c-3.34,0-5.83-2-5.83-5.72,0-3.55,2.51-5.93,6.19-5.93a6.4,6.4,0,0,1,2.79.5m-11.63,7h-4.32v-1.07h4.32Zm-7-.5a3.45,3.45,0,0,1-.05.71l-5.95,0a2.66,2.66,0,0,0,2.91,2.82,6,6,0,0,0,2.34-.4l.28,1a7,7,0,0,1-2.84.53,3.89,3.89,0,0,1-4.19-4.09c0-2.46,1.54-4.39,4-4.39,2.76,0,3.48,2.33,3.48,3.82m-10.93,4.48h-1.55V97.81h1.55Zm-5.6,0h-1.55V97.81h1.55Zm-4.93-4.48a4.17,4.17,0,0,1-.06.71l-5.95,0a2.66,2.66,0,0,0,2.9,2.82,6.07,6.07,0,0,0,2.35-.4l.27,1a7,7,0,0,1-2.84.53,3.87,3.87,0,0,1-4.17-4.09c0-2.46,1.53-4.39,4-4.39,2.77,0,3.5,2.33,3.5,3.82m-9.65-3.61-3.33,8.09h-1.47l-3.23-8.09h1.65l1.67,4.53a22.06,22.06,0,0,1,.68,2.1h0c.2-.68.45-1.35.72-2.1L214,101.6Zm-10.95,8.09h-1.38l-.08-1.31h0a3.19,3.19,0,0,1-2.81,1.5c-1.34,0-2.93-.72-2.93-3.55V101.6H199v4.46c0,1.54.51,2.6,1.9,2.6a2.19,2.19,0,0,0,2-1.36,1.7,1.7,0,0,0,.15-.75v-5h1.54v5.88c0,.85,0,1.58.08,2.21m-10.62-4.13a4.06,4.06,0,0,1-4.2,4.32h0a3.94,3.94,0,0,1-4.07-4.17,4,4,0,0,1,4.2-4.3,3.91,3.91,0,0,1,4.09,4.15m-11.78,4.13h-1.53L177,104a30.23,30.23,0,0,1-2.19-3.77l-.06,0c.09,1.42.1,2.78.1,4.65v4.82h-1.43V98.41h1.68l3.78,5.71a31.19,31.19,0,0,1,2.1,3.67H181c-.14-1.52-.17-2.89-.17-4.64V98.41h1.43Zm145.84-8.09h1.55v8.09h-1.55Zm15.79-5.79H169.25v16.11H343.92Z"/>
            <path class="cls-1"
                  d="M22.34,135.68,26.83,137a8.31,8.31,0,0,1-1.42,3.15A6.14,6.14,0,0,1,23,142.1a9.08,9.08,0,0,1-3.67.64,10.53,10.53,0,0,1-4.41-.78A6.9,6.9,0,0,1,12,139.2a9.34,9.34,0,0,1-1.25-5.06,8.58,8.58,0,0,1,2.19-6.31,8.31,8.31,0,0,1,6.18-2.21A8.33,8.33,0,0,1,24,126.89a7.45,7.45,0,0,1,2.66,3.88l-4.52,1a3.94,3.94,0,0,0-.49-1.11,3,3,0,0,0-1.05-.9,3.06,3.06,0,0,0-1.39-.32,3,3,0,0,0-2.67,1.4,5.91,5.91,0,0,0-.7,3.26c0,1.84.28,3.09.84,3.77a2.84,2.84,0,0,0,2.35,1,2.88,2.88,0,0,0,2.22-.83A5.05,5.05,0,0,0,22.34,135.68Z"/>
            <path class="cls-1"
                  d="M32.84,134.2a8.57,8.57,0,0,1,2.25-6.32,8.55,8.55,0,0,1,6.3-2.26,8.68,8.68,0,0,1,6.37,2.22A8.37,8.37,0,0,1,50,134.06a10.2,10.2,0,0,1-1,4.76,7,7,0,0,1-2.83,2.89,9.29,9.29,0,0,1-4.6,1,10.55,10.55,0,0,1-4.64-.89A6.93,6.93,0,0,1,34,139,9.38,9.38,0,0,1,32.84,134.2Zm5.11,0a5.55,5.55,0,0,0,.93,3.6,3.52,3.52,0,0,0,5.09,0c.61-.71.91-2,.91-3.85a5.12,5.12,0,0,0-1-3.42,3.24,3.24,0,0,0-2.55-1.07,3.1,3.1,0,0,0-2.49,1.09A5.55,5.55,0,0,0,38,134.22Z"/>
            <path class="cls-1"
                  d="M67.67,125.91h5.1v9.86a8.17,8.17,0,0,1-.46,2.77,5.92,5.92,0,0,1-1.43,2.28,5.72,5.72,0,0,1-2,1.37,10.32,10.32,0,0,1-3.58.55,23,23,0,0,1-2.64-.16,7.2,7.2,0,0,1-2.39-.67,6.33,6.33,0,0,1-1.76-1.43,5.39,5.39,0,0,1-1.09-1.91,10.15,10.15,0,0,1-.47-2.8v-9.86H62V136a2.86,2.86,0,0,0,.75,2.11,3.23,3.23,0,0,0,4.15,0,2.88,2.88,0,0,0,.76-2.12Z"/>
            <path class="cls-1"
                  d="M80.37,142.46V125.91H88.9a12.4,12.4,0,0,1,3.62.4,3.8,3.8,0,0,1,2,1.51,5.07,5.07,0,0,1,.18,5.06,4.62,4.62,0,0,1-1.61,1.62,6.57,6.57,0,0,1-1.8.66,4.78,4.78,0,0,1,1.33.61,5,5,0,0,1,.82.86,6.67,6.67,0,0,1,.72,1l2.48,4.8H90.87l-2.73-5.06a3.87,3.87,0,0,0-.93-1.27,2.11,2.11,0,0,0-1.25-.39h-.45v6.72Zm5.14-9.85h2.15a7.51,7.51,0,0,0,1.36-.22,1.34,1.34,0,0,0,.83-.52,1.56,1.56,0,0,0,.32-1,1.5,1.5,0,0,0-.51-1.23,3,3,0,0,0-1.91-.43H85.51Z"/>
            <path class="cls-1"
                  d="M102.52,142.46V125.91h8.53a12.52,12.52,0,0,1,3.63.4,3.84,3.84,0,0,1,2,1.51,4.58,4.58,0,0,1,.77,2.68,4.64,4.64,0,0,1-.59,2.38,4.57,4.57,0,0,1-1.62,1.62,6.37,6.37,0,0,1-1.79.66,4.78,4.78,0,0,1,1.33.61,5,5,0,0,1,.82.86,7.2,7.2,0,0,1,.71,1l2.48,4.8H113l-2.73-5.06a3.87,3.87,0,0,0-.93-1.27,2.13,2.13,0,0,0-1.25-.39h-.46v6.72Zm5.14-9.85h2.16a7.64,7.64,0,0,0,1.36-.22,1.37,1.37,0,0,0,.83-.52,1.56,1.56,0,0,0,.32-1,1.5,1.5,0,0,0-.51-1.23,3.06,3.06,0,0,0-1.91-.43h-2.25Z"/>
            <path class="cls-1" d="M124.82,125.91H130v16.55h-5.13Z"/>
            <path class="cls-1" d="M137.75,125.91h13.71v3.53h-8.59v2.63h8v3.38h-8v3.26h8.84v3.75h-14Z"/>
            <path class="cls-1"
                  d="M158.67,142.46V125.91h8.53a12.52,12.52,0,0,1,3.63.4,3.84,3.84,0,0,1,2,1.51,4.58,4.58,0,0,1,.77,2.68,4.64,4.64,0,0,1-.59,2.38,4.57,4.57,0,0,1-1.62,1.62,6.45,6.45,0,0,1-1.8.66,4.87,4.87,0,0,1,1.34.61,5,5,0,0,1,.81.86,6.67,6.67,0,0,1,.72,1l2.48,4.8h-5.78l-2.74-5.06a3.74,3.74,0,0,0-.92-1.27,2.14,2.14,0,0,0-1.26-.39h-.45v6.72Zm5.14-9.85H166a7.58,7.58,0,0,0,1.35-.22,1.34,1.34,0,0,0,.83-.52,1.66,1.66,0,0,0-.18-2.19,3.06,3.06,0,0,0-1.91-.43h-2.25Z"/>
            <path class="cls-1" d="M194.78,125.91h13.71v3.53h-8.58v2.63h8v3.38h-8v3.26h8.83v3.75h-14Z"/>
            <path class="cls-1" d="M214.48,125.91H230V130h-5.22v12.47h-5.12V130h-5.21Z"/>
            <path class="cls-1"
                  d="M261.54,135.68,266,137a8.16,8.16,0,0,1-1.42,3.15,6.14,6.14,0,0,1-2.41,1.91,9.08,9.08,0,0,1-3.67.64,10.53,10.53,0,0,1-4.41-.78,6.9,6.9,0,0,1-3-2.76,9.34,9.34,0,0,1-1.24-5.06,8.58,8.58,0,0,1,2.18-6.31,9.92,9.92,0,0,1,11.1-.94,7.39,7.39,0,0,1,2.66,3.88l-4.52,1a3.67,3.67,0,0,0-.49-1.11,3,3,0,0,0-1.05-.9,3.06,3.06,0,0,0-1.39-.32,3,3,0,0,0-2.67,1.4,6,6,0,0,0-.7,3.26c0,1.84.28,3.09.84,3.77a2.85,2.85,0,0,0,2.35,1,2.88,2.88,0,0,0,2.22-.83A5.15,5.15,0,0,0,261.54,135.68Z"/>
            <path class="cls-1"
                  d="M272,134.2a7.84,7.84,0,0,1,8.55-8.58,8.66,8.66,0,0,1,6.37,2.22,8.37,8.37,0,0,1,2.23,6.22,10.2,10.2,0,0,1-1,4.76,7,7,0,0,1-2.83,2.89,9.29,9.29,0,0,1-4.6,1,10.55,10.55,0,0,1-4.64-.89,6.93,6.93,0,0,1-3-2.82A9.38,9.38,0,0,1,272,134.2Zm5.12,0a5.56,5.56,0,0,0,.92,3.6,3.53,3.53,0,0,0,5.1,0c.6-.71.9-2,.9-3.85a5.12,5.12,0,0,0-.95-3.42,3.23,3.23,0,0,0-2.55-1.07,3.11,3.11,0,0,0-2.49,1.09A5.61,5.61,0,0,0,277.15,134.22Z"/>
            <path class="cls-1" d="M296.08,125.91h5.12v12.48h8v4.07h-13.1Z"/>
            <path class="cls-1" d="M315.88,125.91H321v16.55h-5.13Z"/>
            <path class="cls-1"
                  d="M327.93,137l4.86-.31a3.69,3.69,0,0,0,.65,1.81,2.69,2.69,0,0,0,2.26,1,2.48,2.48,0,0,0,1.68-.51,1.53,1.53,0,0,0,.6-1.19,1.55,1.55,0,0,0-.57-1.16,6.62,6.62,0,0,0-2.61-1,11.07,11.07,0,0,1-4.81-2,4,4,0,0,1-1.44-3.19,4.27,4.27,0,0,1,.74-2.41,4.91,4.91,0,0,1,2.22-1.79,10.45,10.45,0,0,1,4.07-.65,8.29,8.29,0,0,1,4.84,1.18,5,5,0,0,1,2,3.76l-4.81.28a2.26,2.26,0,0,0-2.51-2.14,2,2,0,0,0-1.35.39,1.15,1.15,0,0,0-.45.92.92.92,0,0,0,.37.71,4.39,4.39,0,0,0,1.72.61,21.31,21.31,0,0,1,4.8,1.46,5,5,0,0,1,2.12,1.84,4.64,4.64,0,0,1,.66,2.45,5.2,5.2,0,0,1-.88,2.93,5.5,5.5,0,0,1-2.46,2,9.88,9.88,0,0,1-4,.69c-2.82,0-4.77-.53-5.85-1.62A6.35,6.35,0,0,1,327.93,137Z"/>
        </g>
    </g>
</svg>
